:SAMPLES-PER-SECOND 30
:FULLY-SPECIFIED
:DEGREES
265
root  -26.0235 40.7006 3.96396 -150.258 -85.0338 145.176
RightUpLeg  -4.97971 -14.872 -11.8397
RightLeg  13.1887 -2.88885 0.382914
RightFoot  -1.79816 -0.416601 4.84925
RightToes  0.000482159 0.542163 -0.142577
Spine  5.49766 -0.393444 2.63803
Spine1  24.5478 1.69575 -4.84855
HEad  48.8567 3.32522 -4.23783
LeftShoulder1  7.55295 -12.2901 -41.4799
LeftArm  -1.86143 1.12215 -31.9078
LeftForeArm  35.0364 -18.3822 -4.18165
LeftHand  -0.25398 0.0180481 5.50724
RightShoulder  5.72251 10.0544 36.2201
RightArm  -1.59671 8.86328 38.9729
RightForeArm  18.3634 11.7702 6.99206
RightHand  -0.810722 2.15539 -12.6664
LeftUpLeg  -3.54035 5.81906 -1.20258
LeftLeg  8.64119 12.2338 -2.77818
LeftFoot  -1.62799 -0.143991 1.81122
LeftToes  1.06244e-005 4.65856e-005 -8.18505e-006
266
root  -25.9829 40.6792 4.00789 -149.183 -85.0905 144
RightUpLeg  -5.06854 -14.926 -11.9313
RightLeg  13.4802 -2.83362 0.24836
RightFoot  -1.97548 -0.421053 4.96684
RightToes  0.000482159 0.542163 -0.142577
Spine  5.38642 -0.441771 2.39977
Spine1  24.7316 1.56088 -4.66564
HEad  49.0797 3.36126 -4.04883
LeftShoulder1  7.46356 -12.1818 -41.2554
LeftArm  -1.7702 1.04989 -32.2468
LeftForeArm  34.7541 -18.9276 -4.00713
LeftHand  -0.25398 0.0180481 5.50724
RightShoulder  5.69552 9.97207 36.2762
RightArm  -2.86512 8.42029 38.8095
RightForeArm  19.2211 11.3386 6.8715
RightHand  -0.802853 2.14245 -12.5669
LeftUpLeg  -3.63638 5.9161 -1.36666
LeftLeg  8.91116 12.0497 -2.66108
LeftFoot  -1.79919 -0.135362 1.75171
LeftToes  1.06244e-005 4.65856e-005 -8.18505e-006
267
root  -25.9457 40.664 4.05435 -147.894 -85.2315 142.655
RightUpLeg  -5.10354 -14.9447 -12.0076
RightLeg  13.6385 -2.92377 0.140022
RightFoot  -2.08346 -0.430513 5.11926
RightToes  0.000482159 0.542163 -0.142577
Spine  5.32637 -0.548749 2.23376
Spine1  24.7713 1.34478 -4.45598
HEad  49.1828 3.33236 -3.90104
LeftShoulder1  7.40185 -12.0886 -41.1506
LeftArm  -1.55634 1.01591 -32.4575
LeftForeArm  34.284 -19.4376 -3.8699
LeftHand  -0.25398 0.0180481 5.50724
RightShoulder  5.65856 9.89743 36.2371
RightArm  -3.86977 7.85041 38.7655
RightForeArm  19.157 11.1907 6.74279
RightHand  -0.808364 2.11586 -12.6931
LeftUpLeg  -3.76564 5.98351 -1.5027
LeftLeg  9.16631 11.8203 -2.53453
LeftFoot  -2.01934 -0.112322 1.52723
LeftToes  1.06244e-005 4.65856e-005 -8.18505e-006
268
root  -25.91 40.6529 4.10291 -146.949 -85.3221 141.652
RightUpLeg  -5.10824 -14.9155 -12.0945
RightLeg  13.7064 -3.05502 0.0588859
RightFoot  -2.09888 -0.440544 5.25712
RightToes  0.000482159 0.542163 -0.142577
Spine  5.33269 -0.652901 2.22882
Spine1  24.735 1.19903 -4.39455
HEad  49.0992 3.15411 -3.73829
LeftShoulder1  7.36925 -12.0454 -41.0776
LeftArm  -1.23888 0.967766 -32.5713
LeftForeArm  33.8966 -19.8482 -3.77543
LeftHand  -0.25398 0.0180481 5.50724
RightShoulder  5.64564 9.83829 36.3252
RightArm  -4.20739 7.27277 38.5726
RightForeArm  18.3787 11.3327 6.68832
RightHand  -0.815305 2.06198 -12.8865
LeftUpLeg  -3.8515 6.03741 -1.62397
LeftLeg  9.35124 11.6811 -2.44606
LeftFoot  -2.19005 -0.0955204 1.35823
LeftToes  1.06244e-005 4.65856e-005 -8.18505e-006
269
root  -25.8798 40.6449 4.14417 -146.771 -85.2866 141.422
RightUpLeg  -5.14225 -14.8578 -12.1783
RightLeg  13.7411 -3.0686 0.0211738
RightFoot  -2.04191 -0.445668 5.30537
RightToes  0.000482159 0.542163 -0.142577
Spine  5.30522 -0.688862 2.27568
Spine1  24.766 1.16506 -4.40385
HEad  48.8156 2.81772 -3.49156
LeftShoulder1  7.36254 -12.0565 -41.0056
LeftArm  -0.910002 0.894686 -32.6312
LeftForeArm  33.6505 -20.2497 -3.68555
LeftHand  -0.25398 0.0180481 5.50724
RightShoulder  5.64533 9.80214 36.4349
RightArm  -4.10493 6.75259 38.3664
RightForeArm  17.6173 11.69 6.64679
RightHand  -0.816988 2.02058 -12.9802
LeftUpLeg  -3.87875 6.078 -1.72744
LeftLeg  9.42132 11.6982 -2.42384
LeftFoot  -2.22824 -0.0969883 1.39428
LeftToes  1.06244e-005 4.65856e-005 -8.18505e-006
270
root  -25.8543 40.6376 4.17827 -147.256 -85.1692 141.868
RightUpLeg  -5.21087 -14.8428 -12.2446
RightLeg  13.7771 -2.92122 0.0312135
RightFoot  -1.9509 -0.44782 5.28732
RightToes  0.000482159 0.542163 -0.142577
Spine  5.25747 -0.677411 2.25721
Spine1  24.8384 1.14567 -4.32469
HEad  48.4306 2.46256 -3.21305
LeftShoulder1  7.36847 -12.0809 -40.9718
LeftArm  -0.753846 0.829576 -32.658
LeftForeArm  33.5144 -20.6585 -3.59092
LeftHand  -0.25398 0.0180481 5.50724
RightShoulder  5.62397 9.79406 36.3035
RightArm  -4.16054 6.33091 38.4638
RightForeArm  17.5096 12.0376 6.54149
RightHand  -0.808505 2.02775 -12.8368
LeftUpLeg  -3.89002 6.09678 -1.81479
LeftLeg  9.44353 11.8103 -2.41598
LeftFoot  -2.20065 -0.103949 1.51472
LeftToes  1.06244e-005 4.65856e-005 -8.18505e-006
271
root  -25.8261 40.6284 4.21325 -148.219 -85.0457 142.793
RightUpLeg  -5.2846 -14.84 -12.2754
RightLeg  13.8152 -2.78666 0.0390682
RightFoot  -1.88302 -0.452248 5.31026
RightToes  0.000482159 0.542163 -0.142577
Spine  5.30258 -0.681302 2.20385
Spine1  24.8045 1.05868 -4.13813
HEad  48.1009 2.21243 -3.04184
LeftShoulder1  7.37939 -12.0884 -41.0162
LeftArm  -0.906067 0.778356 -32.6354
LeftForeArm  33.591 -20.9096 -3.52472
LeftHand  -0.25398 0.0180481 5.50724
RightShoulder  5.58897 9.81007 35.9974
RightArm  -4.55879 6.11509 38.7806
RightForeArm  17.986 12.1275 6.42752
RightHand  -0.790819 2.04308 -12.5384
LeftUpLeg  -3.93835 6.17173 -1.88048
LeftLeg  9.5429 11.8805 -2.35659
LeftFoot  -2.23819 -0.105869 1.55334
LeftToes  1.06244e-005 4.65856e-005 -8.18505e-006
272
root  -25.791 40.6154 4.24971 -149.591 -84.9292 144.144
RightUpLeg  -5.40243 -14.791 -12.2493
RightLeg  13.875 -2.72396 0.0126641
RightFoot  -1.87111 -0.460377 5.40092
RightToes  0.000482159 0.542163 -0.142577
Spine  5.43028 -0.71151 2.19296
Spine1  24.6559 0.933134 -3.93531
HEad  47.8646 2.03287 -3.02685
LeftShoulder1  7.40674 -12.1009 -41.145
LeftArm  -1.2156 0.709217 -32.5176
LeftForeArm  33.8737 -20.9205 -3.50228
LeftHand  -0.25398 0.0180481 5.50724
RightShoulder  5.57856 9.83467 35.8454
RightArm  -4.9417 6.1802 38.9354
RightForeArm  18.3626 11.9694 6.39313
RightHand  -0.788255 2.07844 -12.4429
LeftUpLeg  -4.07902 6.42184 -1.9205
LeftLeg  9.78919 11.8114 -2.23413
LeftFoot  -2.37012 -0.103575 1.53048
LeftToes  1.06244e-005 4.65856e-005 -8.18505e-006
273
root  -25.755 40.5975 4.28094 -151.062 -84.7758 145.649
RightUpLeg  -5.65305 -14.766 -12.1807
RightLeg  14.0403 -2.53074 -0.0158444
RightFoot  -1.89095 -0.464334 5.45531
RightToes  0.000482159 0.542163 -0.142577
Spine  5.51483 -0.738307 2.22828
Spine1  24.5328 0.848387 -3.81605
HEad  47.6031 1.84767 -3.0517
LeftShoulder1  7.44541 -12.1433 -41.2562
LeftArm  -1.31587 0.630392 -32.3359
LeftForeArm  34.0206 -20.8593 -3.50606
LeftHand  -0.25398 0.0180481 5.50724
RightShoulder  5.6004 9.84592 35.9709
RightArm  -5.02691 6.43934 38.8386
RightForeArm  18.1931 11.8635 6.41511
RightHand  -0.818953 2.21595 -12.6954
LeftUpLeg  -4.33522 6.8176 -1.97222
LeftLeg  10.1585 11.6375 -2.06253
LeftFoot  -2.53045 -0.101576 1.52369
LeftToes  1.06244e-005 4.65856e-005 -8.18505e-006
274
root  -25.7237 40.573 4.3052 -152.362 -84.5403 146.98
RightUpLeg  -6.02383 -14.7783 -12.1123
RightLeg  14.4113 -2.19583 -0.0688216
RightFoot  -1.96345 -0.457169 5.40541
RightToes  0.000482159 0.542163 -0.142577
Spine  5.60421 -0.751419 2.26748
Spine1  24.4586 0.829185 -3.80957
HEad  47.2339 1.68671 -3.00133
LeftShoulder1  7.46384 -12.1988 -41.2088
LeftArm  -1.06212 0.611267 -32.2261
LeftForeArm  33.7876 -20.9048 -3.51186
LeftHand  -0.25398 0.0180481 5.50724
RightShoulder  5.61982 9.83583 36.144
RightArm  -4.89063 6.72506 38.7813
RightForeArm  17.6628 12.0827 6.39989
RightHand  -0.852837 2.37844 -12.949
LeftUpLeg  -4.61477 7.19566 -2.0776
LeftLeg  10.5872 11.5003 -1.84215
LeftFoot  -2.70132 -0.0973033 1.50214
LeftToes  1.06244e-005 4.65856e-005 -8.18505e-006
275
root  -25.6909 40.539 4.32516 -153.847 -84.1871 148.37
RightUpLeg  -6.4103 -14.5869 -12.0465
RightLeg  15.0233 -2.02586 -0.251328
RightFoot  -2.22158 -0.441317 5.33883
RightToes  0.000482159 0.542163 -0.142577
Spine  5.95518 -0.746492 2.25658
Spine1  24.2725 0.823477 -3.78736
HEad  46.8274 1.62492 -2.94698
LeftShoulder1  7.46367 -12.2446 -41.0783
LeftArm  -0.7855 0.693965 -32.2353
LeftForeArm  33.5177 -21.0208 -3.50533
LeftHand  -0.25398 0.0180481 5.50724
RightShoulder  5.6036 9.82319 36.0642
RightArm  -4.67736 6.97635 38.9893
RightForeArm  17.116 12.5831 6.31568
RightHand  -0.846478 2.34713 -12.9025
LeftUpLeg  -4.77506 7.55193 -2.19823
LeftLeg  11.0638 11.4757 -1.58167
LeftFoot  -2.9579 -0.0854492 1.40938
LeftToes  1.06244e-005 4.65856e-005 -8.18505e-006
276
root  -25.6454 40.4933 4.3366 -155.881 -83.6817 150.203
RightUpLeg  -6.86083 -14.0304 -11.9407
RightLeg  15.8637 -2.02164 -0.534452
RightFoot  -2.74285 -0.421365 5.35215
RightToes  0.000482159 0.542163 -0.142577
Spine  6.63382 -0.693339 2.12962
Spine1  23.8771 0.784907 -3.57675
HEad  46.4569 1.65731 -3.04377
LeftShoulder1  7.49025 -12.2875 -41.1155
LeftArm  -0.836126 0.842621 -32.221
LeftForeArm  33.6307 -21.0944 -3.48498
LeftHand  -0.25398 0.0180481 5.50724
RightShoulder  5.55324 9.83026 35.6732
RightArm  -4.41198 7.24736 39.398
RightForeArm  16.6821 13.1509 6.20041
RightHand  -0.813518 2.14144 -12.7316
LeftUpLeg  -4.87537 8.14824 -2.26582
LeftLeg  11.6668 11.4162 -1.30838
LeftFoot  -3.35521 -0.0670807 1.25076
LeftToes  1.06244e-005 4.65856e-005 -8.18505e-006
277
root  -25.5873 40.4343 4.32915 -157.813 -83.02 152.047
RightUpLeg  -7.62651 -13.4107 -11.8021
RightLeg  16.9663 -1.79879 -0.712774
RightFoot  -3.43182 -0.393035 5.3415
RightToes  0.000482159 0.542163 -0.142577
Spine  7.34953 -0.578883 1.88114
Spine1  23.3585 0.757201 -3.26033
HEad  46.0452 1.71254 -3.26867
LeftShoulder1  7.54991 -12.3374 -41.3286
LeftArm  -1.05581 1.01492 -32.0711
LeftForeArm  33.87 -21.1245 -3.46435
LeftHand  -0.25398 0.0180481 5.50724
RightShoulder  5.49771 9.84977 35.2056
RightArm  -4.04615 7.54314 39.8392
RightForeArm  16.2858 13.7698 6.06079
RightHand  -0.80478 2.06867 -12.7133
LeftUpLeg  -5.19313 9.16156 -2.32805
LeftLeg  12.4633 11.0977 -1.02867
LeftFoot  -3.84523 -0.0445834 1.03431
LeftToes  1.06244e-005 4.65856e-005 -8.18505e-006
